<svg width="700" height="560" viewBox="0 0 700 560" fill="none" xmlns="http://www.w3.org/2000/svg">
  <defs>
    <linearGradient id="desk" x1="110" y1="408" x2="600" y2="500" gradientUnits="userSpaceOnUse">
      <stop stop-color="#E8F3FF"/>
      <stop offset="1" stop-color="#DDF5E2"/>
    </linearGradient>
    <linearGradient id="screen" x1="280" y1="145" x2="467" y2="340" gradientUnits="userSpaceOnUse">
      <stop stop-color="#42A5F5"/>
      <stop offset="1" stop-color="#1565C0"/>
    </linearGradient>
    <filter id="shadow" x="50" y="70" width="620" height="450" filterUnits="userSpaceOnUse">
      <feDropShadow dx="0" dy="22" stdDeviation="20" flood-color="#05264D" flood-opacity=".18"/>
    </filter>
  </defs>

  <ellipse cx="350" cy="505" rx="260" ry="30" fill="#092E5A" fill-opacity=".13"/>

  <g filter="url(#shadow)">
    <rect x="92" y="98" width="516" height="373" rx="42" fill="white" fill-opacity=".96"/>
    <circle cx="132" cy="134" r="8" fill="#FF8A80"/>
    <circle cx="158" cy="134" r="8" fill="#FFD180"/>
    <circle cx="184" cy="134" r="8" fill="#66BB6A"/>
    <rect x="117" y="164" width="466" height="276" rx="26" fill="url(#desk)"/>
  </g>

  <!-- quadro -->
  <rect x="254" y="137" width="203" height="169" rx="18" fill="url(#screen)"/>
  <rect x="275" y="163" width="91" height="11" rx="5.5" fill="white" fill-opacity=".9"/>
  <rect x="275" y="187" width="150" height="8" rx="4" fill="white" fill-opacity=".38"/>
  <rect x="275" y="209" width="128" height="8" rx="4" fill="white" fill-opacity=".38"/>
  <path d="M282 266L315 237L344 254L380 215L420 247" stroke="#8FE39A" stroke-width="9" stroke-linecap="round" stroke-linejoin="round"/>
  <circle cx="315" cy="237" r="7" fill="white"/>
  <circle cx="380" cy="215" r="7" fill="white"/>

  <!-- pessoa esquerda -->
  <circle cx="192" cy="270" r="42" fill="#B8754D"/>
  <path d="M154 260C158 226 180 208 211 222C232 231 238 250 231 274C214 255 189 248 154 260Z" fill="#16365F"/>
  <path d="M137 432C139 354 151 309 194 306C237 306 253 356 253 432H137Z" fill="#42A5F5"/>
  <path d="M163 324L194 365L225 324" fill="white" fill-opacity=".85"/>
  <path d="M233 345C275 356 302 369 327 399" stroke="#B8754D" stroke-width="24" stroke-linecap="round"/>
  <circle cx="327" cy="399" r="13" fill="#B8754D"/>
  <path d="M164 349C139 370 128 385 120 410" stroke="#B8754D" stroke-width="24" stroke-linecap="round"/>

  <!-- pessoa direita -->
  <circle cx="508" cy="268" r="42" fill="#8C5A3C"/>
  <path d="M466 264C468 222 493 208 523 220C548 230 555 254 546 282C534 254 504 245 466 264Z" fill="#2D2A45"/>
  <path d="M449 432C450 352 464 306 507 306C552 306 568 355 569 432H449Z" fill="#66BB6A"/>
  <path d="M477 324L507 365L537 324" fill="white" fill-opacity=".84"/>
  <path d="M468 346C429 354 402 369 374 397" stroke="#8C5A3C" stroke-width="24" stroke-linecap="round"/>
  <circle cx="374" cy="397" r="13" fill="#8C5A3C"/>
  <path d="M544 347C568 365 579 386 585 410" stroke="#8C5A3C" stroke-width="24" stroke-linecap="round"/>

  <!-- mesa e objetos -->
  <rect x="103" y="408" width="494" height="32" rx="16" fill="#C7D5E6"/>
  <path d="M145 438H168L156 493H133L145 438Z" fill="#9CB0C7"/>
  <path d="M532 438H555L567 493H544L532 438Z" fill="#9CB0C7"/>
  <rect x="289" y="361" width="124" height="70" rx="9" fill="#173F73"/>
  <rect x="301" y="371" width="100" height="48" rx="4" fill="#DFF1FF"/>
  <rect x="273" y="428" width="155" height="8" rx="4" fill="#16365F"/>
  <rect x="185" y="381" width="54" height="11" rx="5.5" fill="#FFCA80"/>
  <rect x="191" y="368" width="42" height="11" rx="5.5" fill="#FF8A80"/>
  <circle cx="493" cy="388" r="23" fill="white"/>
  <path d="M493 376V389L503 395" stroke="#2E7D32" stroke-width="5" stroke-linecap="round"/>

  <!-- ideias -->
  <circle cx="530" cy="153" r="36" fill="#EAF8EC"/>
  <path d="M530 132C518 132 510 141 510 152C510 160 514 166 520 170V178H540V170C546 166 550 160 550 152C550 141 542 132 530 132Z" fill="#66BB6A"/>
  <rect x="521" y="181" width="18" height="5" rx="2.5" fill="#2E7D32"/>
  <path d="M530 113V103M563 125L571 117M497 125L489 117" stroke="#66BB6A" stroke-width="6" stroke-linecap="round"/>

  <circle cx="163" cy="179" r="30" fill="#EAF4FF"/>
  <path d="M149 179L158 188L178 168" stroke="#1565C0" stroke-width="7" stroke-linecap="round" stroke-linejoin="round"/>
</svg>